<svg width="96" height="96" viewBox="0 0 96 96" fill="none" xmlns="http://www.w3.org/2000/svg">
<rect width="96" height="96" rx="8" fill="#313657"/>
<path d="M45.25 22.2222H48.5H51.75H55H58.25V19H55H51.75H48.5H45.25H42H38.75V22.2222H42H45.25Z" fill="#C0C6EB"/>
<path d="M38.75 22.2222H35.5V25.4444H38.75V22.2222Z" fill="#C0C6EB"/>
<path d="M61.5 22.2222H58.25V25.4444H61.5V22.2222Z" fill="#C0C6EB"/>
<path d="M35.5 25.4443H32.25V28.6666H35.5V25.4443Z" fill="#C0C6EB"/>
<path d="M64.75 25.4443H61.5V28.6666H64.75V25.4443Z" fill="#C0C6EB"/>
<path d="M64.75 28.6667V31.889V35.1112V38.3334V41.5556V44.7779V48.0001H68V44.7779V41.5556V38.3334V35.1112V31.889V28.6667H64.75Z" fill="#C0C6EB"/>
<path d="M58.25 31.8889H55V35.1111H58.25V31.8889Z" fill="#C0C6EB"/>
<path d="M42 35.1111H38.75V38.3333H42V35.1111Z" fill="#C0C6EB"/>
<path d="M55 35.1111H51.75V38.3333H55V35.1111Z" fill="#C0C6EB"/>
<path d="M45.25 38.3333H42V41.5555H45.25V38.3333Z" fill="#C0C6EB"/>
<path d="M51.75 38.3333H48.5V41.5555H51.75V38.3333Z" fill="#C0C6EB"/>
<path d="M32.25 41.5556V38.3334V35.1112V31.889V28.6667H29V31.889V35.1112V38.3334V41.5556V44.7779V48.0001H32.25V44.7779V41.5556Z" fill="#C0C6EB"/>
<path d="M48.5 41.5557H45.25V44.7779H48.5V41.5557Z" fill="#C0C6EB"/>
<path d="M35.5 48H32.25V51.2222H35.5V48Z" fill="#C0C6EB"/>
<path d="M64.75 48H61.5V51.2222H64.75V48Z" fill="#C0C6EB"/>
<path d="M58.25 54.4444H55H51.75H48.5H45.25H42H38.75V51.2222H35.5V54.4444V57.6666V60.8888V64.1111V67.3333V70.5555V73.7777V77H38.75V73.7777H42V70.5555H45.25V67.3333H48.5H51.75V70.5555H55V73.7777H58.25V77H61.5V73.7777V70.5555V67.3333V64.1111V60.8888V57.6666V54.4444V51.2222H58.25V54.4444Z" fill="#C0C6EB"/>
</svg>
