<svg width="96" height="96" viewBox="0 0 96 96" fill="none" xmlns="http://www.w3.org/2000/svg">
<rect width="96" height="96" rx="8" fill="#632C2C"/>
<path d="M48.0001 22.2222H51.2223H54.4445V19H51.2223H48.0001H44.7779H41.5557V22.2222H44.7779H48.0001Z" fill="#FAD3D3"/>
<path d="M41.5552 22.2222H38.333V25.4444H41.5552V22.2222Z" fill="#FAD3D3"/>
<path d="M57.6666 22.2222H54.4443V25.4444H57.6666V22.2222Z" fill="#FAD3D3"/>
<path d="M38.3336 25.4443H35.1113V28.6666H38.3336V25.4443Z" fill="#FAD3D3"/>
<path d="M60.8892 25.4443H57.667V28.6666H60.8892V25.4443Z" fill="#FAD3D3"/>
<path d="M60.8887 35.1112V38.3334V41.5556H64.1109V38.3334V35.1112V31.889V28.6667H60.8887V31.889V35.1112Z" fill="#FAD3D3"/>
<path d="M35.1109 38.3334V35.1112V31.889V28.6667H31.8887V31.889V35.1112V38.3334V41.5556H35.1109V38.3334Z" fill="#FAD3D3"/>
<path d="M38.3336 41.5557H35.1113V44.7779H38.3336V41.5557Z" fill="#FAD3D3"/>
<path d="M60.8892 41.5557H57.667V44.7779H60.8892V41.5557Z" fill="#FAD3D3"/>
<path d="M41.5552 44.7778H38.333V48.0001H41.5552V44.7778Z" fill="#FAD3D3"/>
<path d="M57.6666 44.7778H54.4443V48.0001H57.6666V44.7778Z" fill="#FAD3D3"/>
<path d="M48.0001 48H44.7779H41.5557V51.2222H44.7779H48.0001H51.2223H54.4445V48H51.2223H48.0001Z" fill="#FAD3D3"/>
<path d="M64.1114 54.4443H60.8892H57.667H54.4448H51.2225H48.0003H44.7781H41.5559H38.3337H35.1114H31.8892H28.667V57.6666H31.8892H35.1114H38.3337H41.5559H44.7781H48.0003H51.2225H54.4448H57.667H60.8892H64.1114H67.3337V54.4443H64.1114Z" fill="#FAD3D3"/>
<path d="M28.6666 57.6667H25.4443V60.889H28.6666V57.6667Z" fill="#FAD3D3"/>
<path d="M70.5552 57.6667H67.333V60.889H70.5552V57.6667Z" fill="#FAD3D3"/>
<path d="M25.4449 60.8889H22.2227V64.1111H25.4449V60.8889Z" fill="#FAD3D3"/>
<path d="M73.7779 60.8889H70.5557V64.1111H73.7779V60.8889Z" fill="#FAD3D3"/>
<path d="M19 67.3333V70.5555V73.7777V77H22.2222V73.7777V70.5555V67.3333V64.1111H19V67.3333Z" fill="#FAD3D3"/>
<path d="M73.7773 64.1111V67.3333V70.5555V73.7777V77H76.9996V73.7777V70.5555V67.3333V64.1111H73.7773Z" fill="#FAD3D3"/>
</svg>
