<svg width="96" height="96" viewBox="0 0 96 96" fill="none" xmlns="http://www.w3.org/2000/svg">
<rect width="96" height="96" rx="8" fill="#C0C6EB"/>
<path d="M25.4504 22.2222H28.6004H31.7504H34.9004H38.0504H41.2004H44.3504H47.5004H50.6504H53.8004H56.9504H60.1004H63.2504H66.4004H69.5504H72.7004H75.8504V19H72.7004H69.5504H66.4004H63.2504H60.1004H56.9504H53.8004H50.6504H47.5004H44.3504H41.2004H38.0504H34.9004H31.7504H28.6004H25.4504H22.3004H19.1504V22.2222H22.3004H25.4504Z" fill="#FFF500"/>
<path d="M75.8496 22.2222V25.4444V28.6666V31.8888V35.1111V38.3333V41.5555V44.7777V47.9999V51.2222V54.4444V57.6666H78.9996V54.4444V51.2222V47.9999V44.7777V41.5555V38.3333V35.1111V31.8888V28.6666V25.4444V22.2222H75.8496Z" fill="#FFF500"/>
<path d="M19.15 51.2222V47.9999V44.7777V41.5555V38.3333V35.1111V31.8888V28.6666V25.4444V22.2222H16V25.4444V28.6666V31.8888V35.1111V38.3333V41.5555V44.7777V47.9999V51.2222V54.4444V57.6666H19.15V54.4444V51.2222Z" fill="#FFF500"/>
<path d="M69.5504 57.6667H66.4004H63.2504H60.1004H56.9504H53.8004H50.6504H47.5004H44.3504H41.2004H38.0504H34.9004H31.7504H28.6004H25.4504H22.3004H19.1504V60.889H22.3004H25.4504H28.6004H31.7504H34.9004H38.0504H41.2004V64.1112V67.3334V70.5556V73.7779H38.0504H34.9004H31.7504V77.0001H34.9004H38.0504H41.2004H44.3504H47.5004H50.6504H53.8004H56.9504H60.1004H63.2504V73.7779H60.1004H56.9504H53.8004V70.5556V67.3334V64.1112V60.889H56.9504H60.1004H63.2504H66.4004H69.5504H72.7004H75.8504V57.6667H72.7004H69.5504Z" fill="#FFF500"/>
</svg>
