<svg width="96" height="96" viewBox="0 0 96 96" fill="none" xmlns="http://www.w3.org/2000/svg">
<rect width="96" height="96" rx="8" fill="#9FCEF9"/>
<g clip-path="url(#clip0)">
<path d="M54.4375 22.25H51.2188H48H44.7812V25.4688H48H51.2188H54.4375H57.6562V22.25H54.4375Z" fill="#2E543D"/>
<path d="M60.875 25.4688H57.6562V28.6875H60.875V25.4688Z" fill="#2E543D"/>
<path d="M64.0938 28.6875H60.875V31.9062H64.0938V28.6875Z" fill="#2E543D"/>
<path d="M31.9062 31.9062H28.6875V35.125H31.9062V31.9062Z" fill="#2E543D"/>
<path d="M35.125 25.4688H31.9062H28.6875V28.6875H31.9062V31.9062H35.125V35.125H38.3438V31.9062V28.6875V25.4688H35.125Z" fill="#2E543D"/>
<path d="M28.6875 35.125H25.4688V38.3438H28.6875V35.125Z" fill="#2E543D"/>
<path d="M67.3125 28.6875V31.9062H64.0938V35.125H60.875V38.3438H64.0938H67.3125H70.5312V35.125V31.9062V28.6875H67.3125Z" fill="#2E543D"/>
<path d="M22.25 38.3438V41.5625V44.7812V48V51.2188H25.4688V48V44.7812V41.5625V38.3438H22.25Z" fill="#2E543D"/>
<path d="M70.5312 44.7812V48V51.2188V54.4375V57.6562H73.75V54.4375V51.2188V48V44.7812H70.5312Z" fill="#2E543D"/>
<path d="M70.5312 57.6562H67.3125V60.875H70.5312V57.6562Z" fill="#2E543D"/>
<path d="M67.3125 60.875H64.0938V64.0938H67.3125V60.875Z" fill="#2E543D"/>
<path d="M31.9062 57.6562H28.6875H25.4688V60.875V64.0938V67.3125H28.6875V64.0938H31.9062V60.875H35.125V57.6562H31.9062Z" fill="#2E543D"/>
<path d="M35.125 64.0938H31.9062V67.3125H35.125V64.0938Z" fill="#2E543D"/>
<path d="M38.3438 67.3125H35.125V70.5312H38.3438V67.3125Z" fill="#2E543D"/>
<path d="M64.0938 67.3125V64.0938H60.875V60.875H57.6562V64.0938V67.3125V70.5312H60.875H64.0938H67.3125V67.3125H64.0938Z" fill="#2E543D"/>
<path d="M48 70.5312H44.7812H41.5625H38.3438V73.75H41.5625H44.7812H48H51.2188V70.5312H48Z" fill="#2E543D"/>
</g>
<defs>
<clipPath id="clip0">
<rect width="51.5" height="51.5" fill="white" transform="translate(22.25 22.25)"/>
</clipPath>
</defs>
</svg>
