<svg width="96" height="96" viewBox="0 0 96 96" fill="none" xmlns="http://www.w3.org/2000/svg">
<rect width="96" height="96" rx="8" fill="#2E543D"/>
<g clip-path="url(#clip0)">
<path d="M38.1109 19H34.8887V22.2222H38.1109V19Z" fill="#CFFCE6"/>
<path d="M34.8892 22.2222H31.667V25.4444H34.8892V22.2222Z" fill="#CFFCE6"/>
<path d="M31.6666 25.4443H28.4443V28.6666H31.6666V25.4443Z" fill="#CFFCE6"/>
<path d="M28.4449 28.6667H25.2227V31.889H28.4449V28.6667Z" fill="#CFFCE6"/>
<path d="M25.2222 31.8889H22V35.1111H25.2222V31.8889Z" fill="#CFFCE6"/>
<path d="M70.3332 31.8889H67.111H63.8888H60.6666H57.4443H54.2221H50.9999H47.7777H44.5554H41.3332H38.111H34.8888H31.6666H28.4443V35.1111H31.6666H34.8888H38.111H41.3332H44.5554H47.7777H50.9999H54.2221H57.4443H60.6666H63.8888H67.111H70.3332H73.5555V31.8889H70.3332Z" fill="#CFFCE6"/>
<path d="M28.4449 35.1111H25.2227V38.3333H28.4449V35.1111Z" fill="#CFFCE6"/>
<path d="M31.6666 38.3333H28.4443V41.5555H31.6666V38.3333Z" fill="#CFFCE6"/>
<path d="M34.8892 41.5557H31.667V44.7779H34.8892V41.5557Z" fill="#CFFCE6"/>
<path d="M38.1109 44.7778H34.8887V48.0001H38.1109V44.7778Z" fill="#CFFCE6"/>
<path d="M60.6666 48H57.4443V51.2222H60.6666V48Z" fill="#CFFCE6"/>
<path d="M63.8892 51.2222H60.667V54.4444H63.8892V51.2222Z" fill="#CFFCE6"/>
<path d="M67.1109 54.4443H63.8887V57.6666H67.1109V54.4443Z" fill="#CFFCE6"/>
<path d="M70.3335 57.6667H67.1113V60.889H70.3335V57.6667Z" fill="#CFFCE6"/>
<path d="M63.8889 60.8889H60.6667H57.4444H54.2222H51H47.7778H44.5556H41.3333H38.1111H34.8889H31.6667H28.4444H25.2222H22V64.1111H25.2222H28.4444H31.6667H34.8889H38.1111H41.3333H44.5556H47.7778H51H54.2222H57.4444H60.6667H63.8889H67.1111V60.8889H63.8889Z" fill="#CFFCE6"/>
<path d="M73.5552 60.8889H70.333V64.1111H73.5552V60.8889Z" fill="#CFFCE6"/>
<path d="M70.3335 64.1111H67.1113V67.3333H70.3335V64.1111Z" fill="#CFFCE6"/>
<path d="M67.1109 67.3333H63.8887V70.5555H67.1109V67.3333Z" fill="#CFFCE6"/>
<path d="M63.8892 70.5557H60.667V73.7779H63.8892V70.5557Z" fill="#CFFCE6"/>
<path d="M60.6666 73.7778H57.4443V77.0001H60.6666V73.7778Z" fill="#CFFCE6"/>
</g>
<defs>
<clipPath id="clip0">
<rect width="51.5556" height="58" fill="white" transform="translate(22 19)"/>
</clipPath>
</defs>
</svg>
