<svg width="96" height="96" viewBox="0 0 96 96" fill="none" xmlns="http://www.w3.org/2000/svg">
<rect width="96" height="96" rx="8" fill="#5F4D38"/>
<path d="M54.4449 22.2222H51.2227V25.4444H54.4449V22.2222Z" fill="#9FCEF9"/>
<path d="M64.111 19H60.8888H57.6666H54.4443V22.2222H57.6666H60.8888H64.111V25.4444H67.3332V22.2222V19H64.111Z" fill="#9FCEF9"/>
<path d="M64.1109 25.4443H60.8887V28.6666H64.1109V25.4443Z" fill="#9FCEF9"/>
<path d="M70.5552 31.8889H67.333V35.1111H70.5552V31.8889Z" fill="#9FCEF9"/>
<path d="M48 25.4443V28.6666V31.8888V35.111V38.3332H51.2222V35.111V31.8888V28.6666V25.4443H48Z" fill="#9FCEF9"/>
<path d="M64.1114 35.1112H60.8892V31.889V28.6667H57.667V31.889V35.1112V38.3334H60.8892H64.1114H67.3337V35.1112H64.1114Z" fill="#9FCEF9"/>
<path d="M47.9996 38.3333H44.7773V41.5555H47.9996V38.3333Z" fill="#9FCEF9"/>
<path d="M73.7779 28.6667H70.5557V31.889H73.7779V35.1112V38.3334V41.5556H77.0001V38.3334V35.1112V31.889V28.6667H73.7779Z" fill="#9FCEF9"/>
<path d="M44.7779 41.5557H41.5557V44.7779H44.7779V41.5557Z" fill="#9FCEF9"/>
<path d="M73.7779 41.5557H70.5557V44.7779H73.7779V41.5557Z" fill="#9FCEF9"/>
<path d="M41.5552 44.7778H38.333V48.0001H41.5552V44.7778Z" fill="#9FCEF9"/>
<path d="M67.3332 44.7778H64.111H60.8888H57.6666H54.4443V48.0001H57.6666H60.8888H64.111H67.3332H70.5554V44.7778H67.3332Z" fill="#9FCEF9"/>
<path d="M38.3336 48H35.1113V51.2222H38.3336V48Z" fill="#9FCEF9"/>
<path d="M54.4449 48H51.2227V51.2222H54.4449V48Z" fill="#9FCEF9"/>
<path d="M35.1109 51.2222H31.8887V54.4444H35.1109V51.2222Z" fill="#9FCEF9"/>
<path d="M51.2222 51.2222H48V54.4444H51.2222V51.2222Z" fill="#9FCEF9"/>
<path d="M31.8892 54.4443H28.667V57.6666H31.8892V54.4443Z" fill="#9FCEF9"/>
<path d="M47.9996 54.4443H44.7773V57.6666H47.9996V54.4443Z" fill="#9FCEF9"/>
<path d="M28.6666 57.6667H25.4443V60.889H28.6666V57.6667Z" fill="#9FCEF9"/>
<path d="M44.7779 57.6667H41.5557V60.889H44.7779V57.6667Z" fill="#9FCEF9"/>
<path d="M25.4449 60.8889H22.2227V64.1111H25.4449V60.8889Z" fill="#9FCEF9"/>
<path d="M41.5552 60.8889H38.333V64.1111H41.5552V60.8889Z" fill="#9FCEF9"/>
<path d="M38.3336 64.1111H35.1113V67.3333H38.3336V64.1111Z" fill="#9FCEF9"/>
<path d="M35.1109 67.3333H31.8887V70.5555H35.1109V67.3333Z" fill="#9FCEF9"/>
<path d="M19 64.1111V67.3333V70.5555V73.7777H22.2222V70.5555V67.3333V64.1111H19Z" fill="#9FCEF9"/>
<path d="M31.8892 70.5557H28.667V73.7779H31.8892V70.5557Z" fill="#9FCEF9"/>
<path d="M25.4449 73.7778H22.2227V77.0001H25.4449H28.6671V73.7778H25.4449Z" fill="#9FCEF9"/>
</svg>
