<svg width="38" height="38" viewBox="0 0 38 38" fill="none" xmlns="http://www.w3.org/2000/svg">
<g id="smiley_4">
<path id="Ellipse 158" d="M15 13C15 14.1046 14.1046 15 13 15C11.8954 15 11 14.1046 11 13C11 11.8954 11.8954 11 13 11C14.1046 11 15 11.8954 15 13Z" fill="#586673"/>
<path id="Ellipse 163" d="M27 13C27 14.1046 26.1046 15 25 15C23.8954 15 23 14.1046 23 13C23 11.8954 23.8954 11 25 11C26.1046 11 27 11.8954 27 13Z" fill="#586673"/>
<path id="Vector 35 (Stroke)" fill-rule="evenodd" clip-rule="evenodd" d="M9.78337 22.75H28.2166C27.8412 26.937 24.3248 30.25 19 30.25C13.6752 30.25 10.1588 26.937 9.78337 22.75ZM8.25 22C8.25 27.4656 12.6391 31.75 19 31.75C25.3609 31.75 29.75 27.4656 29.75 22C29.75 21.5858 29.4142 21.25 29 21.25H9C8.58579 21.25 8.25 21.5858 8.25 22Z" fill="#586673"/>
<path id="Ellipse 171 (Stroke)" fill-rule="evenodd" clip-rule="evenodd" d="M19 36.5C28.665 36.5 36.5 28.665 36.5 19C36.5 9.33502 28.665 1.5 19 1.5C9.33502 1.5 1.5 9.33502 1.5 19C1.5 28.665 9.33502 36.5 19 36.5ZM19 38C29.4934 38 38 29.4934 38 19C38 8.50659 29.4934 0 19 0C8.50659 0 0 8.50659 0 19C0 29.4934 8.50659 38 19 38Z" fill="#586673"/>
</g>
</svg>
