<svg width="38" height="38" viewBox="0 0 38 38" fill="none" xmlns="http://www.w3.org/2000/svg">
<g id="smiley_5">
<path id="Vector 39 (Stroke)" fill-rule="evenodd" clip-rule="evenodd" d="M18.9999 28.25C23.246 28.25 26.8593 25.3572 28.3415 22.6408C28.5399 22.2772 28.9955 22.1432 29.3591 22.3416C29.7227 22.54 29.8566 22.9956 29.6582 23.3592C27.9658 26.461 23.8966 29.75 18.9999 29.75C16.5475 29.75 14.2264 28.9226 12.3565 27.722C10.4951 26.5269 9.02068 24.9225 8.31249 23.3C8.14678 22.9204 8.32019 22.4783 8.69982 22.3126C9.07944 22.1469 9.52152 22.3203 9.68723 22.7C10.2489 23.9866 11.4887 25.3822 13.167 26.4598C14.8368 27.532 16.8808 28.25 18.9999 28.25Z" fill="#586673"/>
<path id="Ellipse 172" d="M15 13C15 14.1046 14.1046 15 13 15C11.8954 15 11 14.1046 11 13C11 11.8954 11.8954 11 13 11C14.1046 11 15 11.8954 15 13Z" fill="#586673"/>
<path id="Ellipse 173" d="M27 13C27 14.1046 26.1046 15 25 15C23.8954 15 23 14.1046 23 13C23 11.8954 23.8954 11 25 11C26.1046 11 27 11.8954 27 13Z" fill="#586673"/>
<path id="Ellipse 174 (Stroke)" fill-rule="evenodd" clip-rule="evenodd" d="M19 36.5C28.665 36.5 36.5 28.665 36.5 19C36.5 9.33502 28.665 1.5 19 1.5C9.33502 1.5 1.5 9.33502 1.5 19C1.5 28.665 9.33502 36.5 19 36.5ZM19 38C29.4934 38 38 29.4934 38 19C38 8.50659 29.4934 0 19 0C8.50659 0 0 8.50659 0 19C0 29.4934 8.50659 38 19 38Z" fill="#586673"/>
</g>
</svg>
