<svg width="38" height="38" viewBox="0 0 38 38" fill="none" xmlns="http://www.w3.org/2000/svg">
<g id="smiley_1">
<path id="Ellipse 156" d="M15 13C15 14.1046 14.1046 15 13 15C11.8954 15 11 14.1046 11 13C11 11.8954 11.8954 11 13 11C14.1046 11 15 11.8954 15 13Z" fill="#586673"/>
<path id="Ellipse 161" d="M27 13C27 14.1046 26.1046 15 25 15C23.8954 15 23 14.1046 23 13C23 11.8954 23.8954 11 25 11C26.1046 11 27 11.8954 27 13Z" fill="#586673"/>
<path id="Vector 33 (Stroke)" fill-rule="evenodd" clip-rule="evenodd" d="M19.0001 22.75C14.754 22.75 11.1407 25.6428 9.65851 28.3592C9.46012 28.7228 9.00452 28.8568 8.64091 28.6584C8.2773 28.46 8.14337 28.0044 8.34177 27.6408C10.0342 24.539 14.1034 21.25 19.0001 21.25C21.4525 21.25 23.7736 22.0774 25.6435 23.278C27.5049 24.4731 28.9793 26.0775 29.6875 27.7C29.8532 28.0796 29.6798 28.5217 29.3002 28.6874C28.9206 28.8531 28.4785 28.6797 28.3128 28.3C27.7511 27.0134 26.5113 25.6178 24.833 24.5402C23.1632 23.468 21.1192 22.75 19.0001 22.75Z" fill="#586673"/>
<path id="Ellipse 168 (Stroke)" fill-rule="evenodd" clip-rule="evenodd" d="M19 36.5C28.665 36.5 36.5 28.665 36.5 19C36.5 9.33502 28.665 1.5 19 1.5C9.33502 1.5 1.5 9.33502 1.5 19C1.5 28.665 9.33502 36.5 19 36.5ZM19 38C29.4934 38 38 29.4934 38 19C38 8.50659 29.4934 0 19 0C8.50659 0 0 8.50659 0 19C0 29.4934 8.50659 38 19 38Z" fill="#586673"/>
</g>
</svg>
