<svg width="38" height="38" viewBox="0 0 38 38" fill="none" xmlns="http://www.w3.org/2000/svg">
<g id="smiley_2">
<path id="Ellipse 159" d="M15 13C15 14.1046 14.1046 15 13 15C11.8954 15 11 14.1046 11 13C11 11.8954 11.8954 11 13 11C14.1046 11 15 11.8954 15 13Z" fill="#586673"/>
<path id="Ellipse 164" d="M27 13C27 14.1046 26.1046 15 25 15C23.8954 15 23 14.1046 23 13C23 11.8954 23.8954 11 25 11C26.1046 11 27 11.8954 27 13Z" fill="#586673"/>
<path id="Vector 36 (Stroke)" fill-rule="evenodd" clip-rule="evenodd" d="M11.7726 22.8183C11.873 22.4164 12.2802 22.1721 12.6821 22.2726L26.6821 25.7726C27.0839 25.873 27.3282 26.2802 27.2278 26.6821C27.1273 27.0839 26.7201 27.3282 26.3183 27.2278L12.3183 23.7278C11.9164 23.6273 11.6721 23.2201 11.7726 22.8183Z" fill="#586673"/>
<path id="Ellipse 169 (Stroke)" fill-rule="evenodd" clip-rule="evenodd" d="M19 36.5C28.665 36.5 36.5 28.665 36.5 19C36.5 9.33502 28.665 1.5 19 1.5C9.33502 1.5 1.5 9.33502 1.5 19C1.5 28.665 9.33502 36.5 19 36.5ZM19 38C29.4934 38 38 29.4934 38 19C38 8.50659 29.4934 0 19 0C8.50659 0 0 8.50659 0 19C0 29.4934 8.50659 38 19 38Z" fill="#586673"/>
</g>
</svg>
